<mxfile host="app.diagrams.net" agent="Mozilla/5.0 (Windows NT 10.0; Win64; x64; rv:129.0) Gecko/20100101 Firefox/129.0" version="24.7.7">
  <diagram name="Página-1" id="uuQs0PjwtDA5l6Fh1MFA">
    <mxGraphModel dx="1434" dy="734" grid="1" gridSize="10" guides="1" tooltips="1" connect="1" arrows="1" fold="1" page="1" pageScale="1" pageWidth="1169" pageHeight="826" math="0" shadow="0">
      <root>
        <mxCell id="0" />
        <mxCell id="1" parent="0" />
        <mxCell id="siaqCacQFSX6dH0VF1lV-1" value="" style="ellipse;html=1;shape=startState;fillColor=#000000;strokeColor=#ff0000;" vertex="1" parent="1">
          <mxGeometry x="540" y="160" width="30" height="30" as="geometry" />
        </mxCell>
        <mxCell id="siaqCacQFSX6dH0VF1lV-2" value="" style="edgeStyle=orthogonalEdgeStyle;html=1;verticalAlign=bottom;endArrow=open;endSize=8;strokeColor=#ff0000;rounded=0;" edge="1" source="siaqCacQFSX6dH0VF1lV-1" parent="1">
          <mxGeometry relative="1" as="geometry">
            <mxPoint x="555" y="250" as="targetPoint" />
          </mxGeometry>
        </mxCell>
        <mxCell id="siaqCacQFSX6dH0VF1lV-5" value="" style="edgeStyle=orthogonalEdgeStyle;rounded=0;orthogonalLoop=1;jettySize=auto;html=1;" edge="1" parent="1" source="siaqCacQFSX6dH0VF1lV-3" target="siaqCacQFSX6dH0VF1lV-4">
          <mxGeometry relative="1" as="geometry" />
        </mxCell>
        <mxCell id="siaqCacQFSX6dH0VF1lV-3" value="Inserir informações de login" style="html=1;whiteSpace=wrap;" vertex="1" parent="1">
          <mxGeometry x="500" y="250" width="110" height="50" as="geometry" />
        </mxCell>
        <mxCell id="siaqCacQFSX6dH0VF1lV-7" value="" style="edgeStyle=orthogonalEdgeStyle;rounded=0;orthogonalLoop=1;jettySize=auto;html=1;" edge="1" parent="1" source="siaqCacQFSX6dH0VF1lV-4" target="siaqCacQFSX6dH0VF1lV-6">
          <mxGeometry relative="1" as="geometry" />
        </mxCell>
        <mxCell id="siaqCacQFSX6dH0VF1lV-12" value="" style="edgeStyle=orthogonalEdgeStyle;rounded=0;orthogonalLoop=1;jettySize=auto;html=1;" edge="1" parent="1" source="siaqCacQFSX6dH0VF1lV-4" target="siaqCacQFSX6dH0VF1lV-11">
          <mxGeometry relative="1" as="geometry" />
        </mxCell>
        <mxCell id="siaqCacQFSX6dH0VF1lV-4" value="Informações validas?" style="rhombus;whiteSpace=wrap;html=1;" vertex="1" parent="1">
          <mxGeometry x="507.5" y="350" width="95" height="80" as="geometry" />
        </mxCell>
        <mxCell id="siaqCacQFSX6dH0VF1lV-10" value="" style="edgeStyle=orthogonalEdgeStyle;rounded=0;orthogonalLoop=1;jettySize=auto;html=1;" edge="1" parent="1" source="siaqCacQFSX6dH0VF1lV-6" target="siaqCacQFSX6dH0VF1lV-9">
          <mxGeometry relative="1" as="geometry" />
        </mxCell>
        <mxCell id="siaqCacQFSX6dH0VF1lV-6" value="Realizar cadastro" style="whiteSpace=wrap;html=1;" vertex="1" parent="1">
          <mxGeometry x="320" y="360" width="120" height="60" as="geometry" />
        </mxCell>
        <mxCell id="siaqCacQFSX6dH0VF1lV-8" value="Se sim" style="text;html=1;align=center;verticalAlign=middle;resizable=0;points=[];autosize=1;strokeColor=none;fillColor=none;" vertex="1" parent="1">
          <mxGeometry x="460" y="360" width="60" height="30" as="geometry" />
        </mxCell>
        <mxCell id="siaqCacQFSX6dH0VF1lV-21" style="edgeStyle=orthogonalEdgeStyle;rounded=0;orthogonalLoop=1;jettySize=auto;html=1;" edge="1" parent="1" source="siaqCacQFSX6dH0VF1lV-9" target="siaqCacQFSX6dH0VF1lV-20">
          <mxGeometry relative="1" as="geometry">
            <Array as="points">
              <mxPoint x="380" y="640" />
            </Array>
          </mxGeometry>
        </mxCell>
        <mxCell id="siaqCacQFSX6dH0VF1lV-9" value="Redirecionar para a tela de login" style="whiteSpace=wrap;html=1;" vertex="1" parent="1">
          <mxGeometry x="320" y="520" width="120" height="60" as="geometry" />
        </mxCell>
        <mxCell id="siaqCacQFSX6dH0VF1lV-14" value="" style="edgeStyle=orthogonalEdgeStyle;rounded=0;orthogonalLoop=1;jettySize=auto;html=1;" edge="1" parent="1" source="siaqCacQFSX6dH0VF1lV-11" target="siaqCacQFSX6dH0VF1lV-13">
          <mxGeometry relative="1" as="geometry" />
        </mxCell>
        <mxCell id="siaqCacQFSX6dH0VF1lV-11" value="Exibir erro" style="whiteSpace=wrap;html=1;" vertex="1" parent="1">
          <mxGeometry x="670" y="360" width="120" height="60" as="geometry" />
        </mxCell>
        <mxCell id="siaqCacQFSX6dH0VF1lV-15" style="edgeStyle=orthogonalEdgeStyle;rounded=0;orthogonalLoop=1;jettySize=auto;html=1;" edge="1" parent="1" source="siaqCacQFSX6dH0VF1lV-13" target="siaqCacQFSX6dH0VF1lV-3">
          <mxGeometry relative="1" as="geometry">
            <Array as="points">
              <mxPoint x="930" y="275" />
            </Array>
          </mxGeometry>
        </mxCell>
        <mxCell id="siaqCacQFSX6dH0VF1lV-18" value="" style="edgeStyle=orthogonalEdgeStyle;rounded=0;orthogonalLoop=1;jettySize=auto;html=1;" edge="1" parent="1" source="siaqCacQFSX6dH0VF1lV-13" target="siaqCacQFSX6dH0VF1lV-17">
          <mxGeometry relative="1" as="geometry" />
        </mxCell>
        <mxCell id="siaqCacQFSX6dH0VF1lV-13" value="Tentar novamente?" style="rhombus;whiteSpace=wrap;html=1;" vertex="1" parent="1">
          <mxGeometry x="880" y="350" width="100" height="80" as="geometry" />
        </mxCell>
        <mxCell id="siaqCacQFSX6dH0VF1lV-16" value="Se sim" style="text;html=1;align=center;verticalAlign=middle;resizable=0;points=[];autosize=1;strokeColor=none;fillColor=none;" vertex="1" parent="1">
          <mxGeometry x="920" y="320" width="60" height="30" as="geometry" />
        </mxCell>
        <mxCell id="siaqCacQFSX6dH0VF1lV-22" style="edgeStyle=orthogonalEdgeStyle;rounded=0;orthogonalLoop=1;jettySize=auto;html=1;" edge="1" parent="1" source="siaqCacQFSX6dH0VF1lV-17" target="siaqCacQFSX6dH0VF1lV-20">
          <mxGeometry relative="1" as="geometry">
            <Array as="points">
              <mxPoint x="930" y="640" />
            </Array>
          </mxGeometry>
        </mxCell>
        <mxCell id="siaqCacQFSX6dH0VF1lV-17" value="Fechar aplicativo" style="whiteSpace=wrap;html=1;" vertex="1" parent="1">
          <mxGeometry x="870" y="520" width="120" height="60" as="geometry" />
        </mxCell>
        <mxCell id="siaqCacQFSX6dH0VF1lV-19" value="Se não" style="text;html=1;align=center;verticalAlign=middle;resizable=0;points=[];autosize=1;strokeColor=none;fillColor=none;" vertex="1" parent="1">
          <mxGeometry x="930" y="420" width="60" height="30" as="geometry" />
        </mxCell>
        <mxCell id="siaqCacQFSX6dH0VF1lV-24" value="" style="edgeStyle=orthogonalEdgeStyle;rounded=0;orthogonalLoop=1;jettySize=auto;html=1;" edge="1" parent="1" source="siaqCacQFSX6dH0VF1lV-20" target="siaqCacQFSX6dH0VF1lV-23">
          <mxGeometry relative="1" as="geometry" />
        </mxCell>
        <mxCell id="siaqCacQFSX6dH0VF1lV-20" value="" style="rhombus;whiteSpace=wrap;html=1;" vertex="1" parent="1">
          <mxGeometry x="620" y="600" width="80" height="80" as="geometry" />
        </mxCell>
        <mxCell id="siaqCacQFSX6dH0VF1lV-23" value="" style="ellipse;html=1;shape=endState;fillColor=#000000;strokeColor=#ff0000;" vertex="1" parent="1">
          <mxGeometry x="645" y="740" width="30" height="30" as="geometry" />
        </mxCell>
      </root>
    </mxGraphModel>
  </diagram>
</mxfile>
